<svg width="400" height="60" viewBox="0 0 400 60" fill="none" xmlns="http://www.w3.org/2000/svg">
<rect width="60" height="60" rx="4" fill="#F2F2F2"/>
<path d="M25.8008 34.1638H28.5808V26.2638L28.8808 24.9038L27.9208 26.0838L26.1408 27.3038L25.0408 25.8038L29.6008 22.1238H31.0608V34.1638H33.7808V36.3638H25.8008V34.1638Z" fill="black"/>
<rect x="68" width="60" height="60" rx="4" fill="#82B3D3"/>
<path d="M101.281 25.7838C101.281 26.4638 101.154 27.1504 100.901 27.8438C100.661 28.5371 100.347 29.2171 99.9608 29.8838C99.5874 30.5504 99.1674 31.1971 98.7008 31.8238C98.2474 32.4371 97.8008 33.0038 97.3608 33.5238L96.3008 34.3438V34.4438L97.7408 34.1638H101.581V36.3638H93.1608V35.0238C93.4808 34.6904 93.8408 34.3038 94.2408 33.8638C94.6408 33.4104 95.0408 32.9371 95.4408 32.4438C95.8541 31.9371 96.2541 31.4171 96.6408 30.8838C97.0274 30.3504 97.3741 29.8171 97.6808 29.2838C97.9874 28.7371 98.2274 28.2104 98.4008 27.7038C98.5874 27.1971 98.6808 26.7171 98.6808 26.2638C98.6808 25.7171 98.5208 25.2704 98.2008 24.9238C97.8941 24.5638 97.4008 24.3838 96.7208 24.3838C96.2941 24.3838 95.8541 24.4771 95.4008 24.6638C94.9608 24.8371 94.5874 25.0638 94.2808 25.3438L93.2408 23.5038C93.7608 23.0771 94.3474 22.7371 95.0008 22.4838C95.6674 22.2171 96.4474 22.0838 97.3408 22.0838C97.9141 22.0838 98.4408 22.1638 98.9208 22.3238C99.4008 22.4838 99.8141 22.7171 100.161 23.0238C100.507 23.3304 100.781 23.7171 100.981 24.1838C101.181 24.6371 101.281 25.1704 101.281 25.7838Z" fill="white"/>
<rect x="136" width="60" height="60" rx="4" fill="#82B3D3"/>
<path d="M164.601 34.4438C165.427 34.4438 166.054 34.2238 166.481 33.7838C166.921 33.3438 167.141 32.8104 167.141 32.1838C167.141 31.4238 166.914 30.8638 166.461 30.5038C166.007 30.1438 165.294 29.9638 164.321 29.9638H162.881V28.5838L165.301 25.2838L166.441 24.3838L164.861 24.5638H161.501V22.3638H169.141V23.7838L166.321 27.5638L165.441 28.1038V28.2038L166.281 28.0838C166.747 28.1238 167.187 28.2304 167.601 28.4038C168.027 28.5771 168.394 28.8304 168.701 29.1638C169.021 29.4838 169.274 29.8838 169.461 30.3638C169.647 30.8438 169.741 31.3971 169.741 32.0238C169.741 32.8104 169.607 33.4904 169.341 34.0638C169.087 34.6371 168.727 35.1171 168.261 35.5038C167.807 35.8904 167.274 36.1771 166.661 36.3638C166.047 36.5504 165.387 36.6438 164.681 36.6438C164.094 36.6438 163.487 36.5904 162.861 36.4838C162.234 36.3771 161.727 36.2238 161.341 36.0238L162.041 33.8638C162.387 34.0371 162.767 34.1771 163.181 34.2838C163.607 34.3904 164.081 34.4438 164.601 34.4438Z" fill="white"/>
<rect x="204" width="60" height="60" rx="4" fill="#82B3D3"/>
<path d="M238.841 32.4638H236.641V36.3638H234.221V32.4638H228.161V30.9838L234.501 22.2638H236.641V30.3838H238.841V32.4638ZM234.221 27.3238L234.401 25.6438H234.321L233.641 27.0838L231.561 29.7838L230.561 30.5438L231.841 30.3838H234.221V27.3238Z" fill="white"/>
<path d="M294.536 36.3518C294.536 35.9558 294.646 35.6478 294.866 35.4278C295.1 35.1931 295.408 35.0758 295.79 35.0758C296.186 35.0758 296.501 35.1931 296.736 35.4278C296.97 35.6478 297.088 35.9558 297.088 36.3518C297.088 36.7331 296.97 37.0411 296.736 37.2758C296.501 37.5104 296.186 37.6278 295.79 37.6278C295.408 37.6278 295.1 37.5104 294.866 37.2758C294.646 37.0411 294.536 36.7331 294.536 36.3518ZM300.68 36.3518C300.68 35.9558 300.79 35.6478 301.01 35.4278C301.245 35.1931 301.553 35.0758 301.934 35.0758C302.33 35.0758 302.645 35.1931 302.88 35.4278C303.115 35.6478 303.232 35.9558 303.232 36.3518C303.232 36.7331 303.115 37.0411 302.88 37.2758C302.645 37.5104 302.33 37.6278 301.934 37.6278C301.553 37.6278 301.245 37.5104 301.01 37.2758C300.79 37.0411 300.68 36.7331 300.68 36.3518ZM306.825 36.3518C306.825 35.9558 306.935 35.6478 307.155 35.4278C307.389 35.1931 307.697 35.0758 308.079 35.0758C308.475 35.0758 308.79 35.1931 309.025 35.4278C309.259 35.6478 309.377 35.9558 309.377 36.3518C309.377 36.7331 309.259 37.0411 309.025 37.2758C308.79 37.5104 308.475 37.6278 308.079 37.6278C307.697 37.6278 307.389 37.5104 307.155 37.2758C306.935 37.0411 306.825 36.7331 306.825 36.3518Z" fill="black"/>
<rect x="340" width="60" height="60" rx="4" fill="#82B3D3"/>
<path d="M360.627 34.1638H363.407V26.2638L363.707 24.9038L362.747 26.0838L360.967 27.3038L359.867 25.8038L364.427 22.1238H365.887V34.1638H368.607V36.3638H360.627V34.1638ZM370.755 29.3438C370.755 26.8904 371.175 25.0704 372.015 23.8838C372.855 22.6838 374.061 22.0838 375.635 22.0838C377.315 22.0838 378.548 22.6771 379.335 23.8638C380.121 25.0371 380.515 26.8638 380.515 29.3438C380.515 31.8104 380.088 33.6438 379.235 34.8438C378.395 36.0438 377.188 36.6438 375.615 36.6438C373.948 36.6438 372.721 36.0171 371.935 34.7638C371.148 33.4971 370.755 31.6904 370.755 29.3438ZM373.355 29.3438C373.355 30.9704 373.528 32.2304 373.875 33.1238C374.235 34.0038 374.821 34.4438 375.635 34.4438C376.421 34.4438 376.995 34.0371 377.355 33.2238C377.728 32.4104 377.915 31.1171 377.915 29.3438C377.915 27.7304 377.741 26.4838 377.395 25.6038C377.048 24.7238 376.455 24.2838 375.615 24.2838C374.815 24.2838 374.235 24.6971 373.875 25.5238C373.528 26.3504 373.355 27.6238 373.355 29.3438Z" fill="white"/>
</svg>
